<?xml version="1.0" encoding="utf-8"?>
<!-- Generator: Adobe Illustrator 14.0.0, SVG Export Plug-In . SVG Version: 6.00 Build 43363)  -->
<!DOCTYPE svg PUBLIC "-//W3C//DTD SVG 1.1//EN" "http://www.w3.org/Graphics/SVG/1.1/DTD/svg11.dtd">
<svg version="1.1" id="Layer_1" xmlns="http://www.w3.org/2000/svg" xmlns:xlink="http://www.w3.org/1999/xlink" x="0px" y="0px"
	 width="800px" height="600px" viewBox="0 0 800 600" enable-background="new 0 0 800 600" xml:space="preserve">
<rect x="1" y="0.472" fill-rule="evenodd" clip-rule="evenodd" width="799" height="600"/>
<g>
	<path fill-rule="evenodd" clip-rule="evenodd" fill="#FFFFFF" d="M1,0.472c266.338,0,532.654,0,799,0c0,200,0,400.001,0,600
		c-266.674,0-533.321,0-800,0c0-199.004,0-397.994,0-597C-0.086,2.052-0.165,0.64,1,0.472z M608,77.472
		c-1.958-9.471-13.786-14.329-21-10c-49.708-11.137-102.387-3.617-147,14c-33.99,13.422-73.234,34.516-91,61
		c-2.876,1.124-5.899,2.101-8,4c-0.73,4.937-2.866,8.468-2,15c-13.331,16.335-24.024,35.31-35,54c-6.271-1.271-6.515,3.485-10,5
		c-2.008,25.008,7.302,38.698,12,57c-5.142,2.191-9.801,4.866-16,6c0-32.333,0-64.667,0-97c11.837-3.163,18.966-11.034,24-21
		c6.222-38.994-11.235-59.288-44-56c0-11.667,0-23.333,0-35c-9,0-18,0-27,0c-2.313,19.353-0.348,42.985-1,64
		c-17.494-5.119-42.854-3-71-3c-24.125,0-43.741-3.886-62,0c-14.872,3.165-17.04,19.835-19,35c-5.114,39.568-11.3,88.951-19,128
		c-10,0-20,0-30,0c-17.517,6.087-10.635,34.938-12,59c-12.417-1.083-11.297,11.369-19,15c-0.014,9.938,0.083,33.028,0,43
		c0.4,3.933,7.237,1.43,7,6c0.499,12.834-2.891,29.558,7,33c10,0,20,0,30,0c-2.093,8.202,17.545,2.134,25,4
		c0.612,10.388-1.26,23.26,1,32c6.881,4.072,14.658,11.024,7,19c8.257,9.076,16.924,17.743,26,26c8.493-5.565,16.61-0.559,19,8
		c11.667,0,23.333,0,35,0c2.514-7.28,10.292-12.591,19-8c8.587-8.412,18.079-15.922,25-26c-5.796-9.359,6.895-13.703,9-21
		c2.68-9.288-2.797-19.098,1-30c8,0,16,0,24,0c0.959-4.017-3.289-7.968-1-10c18.685-0.648,39.976,1.309,57-1
		c3.841,14.297,30.364,9,52,9c16.528,0,32.278,0,45,0c0,11.667,0,23.333,0,35c9.192,2.905,12.719,9.477,8,19
		c7.894,8.772,16.28,17.054,25,25c8.696-5.361,16.471-0.697,19,8c11.667,0,23.333,0,35,0c3.478-6.842,10.48-12.796,20-8
		c6.563-11.048,22.821-14.232,25-26c0.54-2.917-1.925-6.021-1-9c1.497-4.822,6.984-6.619,9-11c0.025-4.966-0.032-11.968,0-18
		c0.031-5.782-2.365-13.854,3-15c5.363,1.343,3,9.902,3,16c0,6.908-0.732,14.583,1,19c7.583,3.037,12.57,9.592,7,18
		c7.823,9.177,15.864,18.136,25,26c9.231-5.291,15.76-0.278,20,7c9.672,2.328,23.663,0.337,35,1c2.571-1.429,1.116-6.884,4-8
		c5.915-1.89,9.085-1.89,15,0c8.742-7.924,17.076-16.258,25-25c-5.012-9.903,3.371-15.08,8-21c4.341-16.702-6.787-45.131,13-43
		c3.866-13.087,0.611-44.704-3-61c-3.139-14.166-12.541-19.718-31-17c22.888-49.497,47.093-101.789,70-153
		c20.077-4.744,22.985-38.73,16-61c7.248-13.123,14.465-27.365,22-41c7.572-13.7,18.059-27.961,18-42
		c-20.355-4.272-72.727-6.438-87,2c-3.161,14.47-3.221,35.225-5,48c-3.529-12.624-16.952-34.21-30-19
		C648.841,92.63,629.704,83.767,608,77.472z"/>
	<path fill-rule="evenodd" clip-rule="evenodd" fill="#FFFFFF" d="M587,73.472c-2.63,8.434,1.595,17.398,3,25
		c-36.935,89.398-73.564,179.103-109,270c-19,0-38,0-57,0c-0.412-19.428-5.748-32.121-11-49c-2.872-9.23-9.129-20.004-9-28
		c0.107-6.645,7.293-19.202,11-28c26.646-63.236,54.32-131.336,80-192C523.425,66.785,560.693,67.5,587,73.472z"/>
	<path fill-rule="evenodd" clip-rule="evenodd" fill="#FFFFFF" d="M665,293.472c-13.694-9.764-16.705-29.167-22-46
		c-5.28-16.786-10.521-34.52-16-52c-10.898-34.771-25.244-70.476-33-103c-0.907-3.804-1.238-13.475-1-19c0.19-0.81,1.003-0.997,1-2
		c0.891-0.615,1.788-1.208,2,0c12.436,11.247,16.251,33.827,23,55c10.556,33.115,20.293,64.337,31,97
		C657.637,246.766,666.871,265.381,665,293.472z"/>
	<path fill-rule="evenodd" clip-rule="evenodd" fill="#FFFFFF" d="M490,72.472c-26.211,69.456-59.066,140.934-87,212
		c-13.705-33.628-23.294-71.373-35-107c11.496-23.171,22.317-47.016,33-71C427.234,91.707,456.131,79.602,490,72.472z"/>
	<path fill-rule="evenodd" clip-rule="evenodd" fill="#FFFFFF" d="M784,74.472c-9.412,23.601-25.374,49.282-38,73
		c-4,1.167-7.284-5.607-14-8c-7.824-2.788-19.037-2.113-30-1c-0.506-18.21,4.358-39.614,4-61c0.891-0.443,1.788-0.878,2-2
		C727.588,73.25,759.48,75.058,784,74.472z"/>
	<path fill-rule="evenodd" clip-rule="evenodd" fill="#FFFFFF" d="M248,80.472c5.333,0,10.667,0,16,0c0,10.333,0,20.667,0,31
		c-6.816,1.851-10.396,6.938-16,10C248,107.805,248,94.138,248,80.472z"/>
	<path fill-rule="evenodd" clip-rule="evenodd" fill="#FFFFFF" d="M612,83.472c17.496,9.504,39.656,14.344,55,26
		c-0.296,19.782,8.058,36.33,15,58c7.475,23.329,11.533,45.346,22,60c-8.1,17.569-21.738,34.927-33,46
		C651.766,207.863,631.81,150.372,612,83.472z"/>
	<path fill-rule="evenodd" clip-rule="evenodd" fill="#FFFFFF" d="M715,226.472c-14.783-8.298-18.759-29.49-24-47
		c-5.372-17.945-12.491-36.587-17-54c-1.236-4.776-1.846-13.241,0-20c-0.551-2.217,1.91-1.424,2-3c1,0,2,0,3,0
		c13.122,14.119,16.969,35.892,24,59C710.348,185.621,722.465,205.068,715,226.472z"/>
	<path fill-rule="evenodd" clip-rule="evenodd" fill="#FFFFFF" d="M591,103.472c8.593,24.61,20.742,62.519,30,92
		c3.191,10.163,9.158,23.373,9,31c-0.181,8.718-8.017,22.376-12,32c-11.952,28.877-24.219,60.358-37,91
		c-27.149,11.517-55.312,22.022-97,19C519.425,279.897,555.296,191.767,591,103.472z"/>
	<path fill-rule="evenodd" clip-rule="evenodd" fill="#FFFFFF" d="M395,110.472c-6.865,19.47-19.414,41.918-28,63
		c-3.587-10.413-7.991-20.009-14-28C363.255,130.06,379.182,120.32,395,110.472z"/>
	<path fill-rule="evenodd" clip-rule="evenodd" fill="#FFFFFF" d="M269,116.472c14.38-3.046,34.142,1.725,39,17
		c2.58,8.11,4.159,25.468-2,36c-6.417,10.974-21.92,13.689-31,13C239.255,179.756,236.312,123.396,269,116.472z M277,162.472
		c20.242,2.083,20.776-32.983-2-27C260.607,139.253,263.5,161.083,277,162.472z"/>
	<path fill-rule="evenodd" clip-rule="evenodd" fill="#FFFFFF" d="M276,141.472c5.204-2.161,9.675-0.209,11,4
		C293.968,167.604,255.821,149.849,276,141.472z"/>
	<path fill-rule="evenodd" clip-rule="evenodd" fill="#FFFFFF" d="M243,300.472c-1.35,2.699-9.075-4.692-17-2
		c0-17.849,0-38.508,0-60c0-26.344,6.083-64.434-12-71c-9.542-3.465-31.666-1-45-1c-25.803,0-53.943-4.952-62,11
		c-7.288,14.431-6.608,43.286-9,61c-2.81,20.809-6.976,40.032-10,60c-2.667,0-5.333,0-8,0c-1.369-19.286,4.507-45.755,9-73
		c1.958-11.876,3.35-25.427,5-38c2.141-16.309,1.287-42.378,16-46c17.263-4.249,47.157,0,67,0c10.233,0,56.589-4.409,63,3
		c4.302,4.972,3,25.746,3,37C243,222.438,243,261.239,243,300.472z"/>
	<path fill-rule="evenodd" clip-rule="evenodd" fill="#FFFFFF" d="M725,213.472c-6.244-24.215-14.151-44.61-21-70
		c0.81-0.19,0.997-1.003,2-1C756.144,127.04,759.484,207.763,725,213.472z"/>
	<path fill-rule="evenodd" clip-rule="evenodd" fill="#FFFFFF" d="M346,149.472c1.615-0.282,1.722,0.945,3,1
		c17.237,31.953,26.71,69.442,38,106c5.58,18.066,11.37,36.633,17,55c5.617,18.325,15.355,36.857,13,57
		c-9.697-1.201-11.661-12.922-14-20c-13.75-41.621-26.626-85.568-41-129c-5.755-17.388-12.673-35.001-16-51
		c-1.119-5.381-1.13-11.966,0-16C346,151.472,346,150.472,346,149.472z"/>
	<path fill-rule="evenodd" clip-rule="evenodd" fill="#FFFFFF" d="M340,168.472c20.731,63.935,40.943,128.39,61,193
		c-18.645-5.354-37.301-10.698-54-18c2.017-25.282-8.769-43.8-16-67c-7.305-23.436-10.531-42.746-22-59
		C319.162,200.967,329.59,184.728,340,168.472z"/>
	<path fill-rule="evenodd" clip-rule="evenodd" fill="#FFFFFF" d="M221,262.472c-41,0-82,0-123,0c2.967-18.116,5.116-33.988,8-55
		c1.772-12.911,2.13-32.785,15-36c12.604-3.148,33.494,0,49,0c9.182,0,37.457-3.721,46,2c7.675,5.139,5,27.944,5,42
		C221,233.259,221,247.362,221,262.472z"/>
	<path fill-rule="evenodd" clip-rule="evenodd" fill="#FFFFFF" d="M249,176.472c7.821,7.845,19.052,12.282,36,11
		c-1.2,45.8,2.483,96.484-2,139c-11.333,0-22.667,0-34,0C249,276.472,249,226.472,249,176.472z"/>
	<path fill-rule="evenodd" clip-rule="evenodd" fill="#FFFFFF" d="M724,218.472c1.787-0.282,2.052,0.945,1,1
		c-21.047,50.953-45.544,98.456-67,149c-19,0-38,0-57,0c3.667-10.333,10.443-17.558,13-29c22.204-11.797,41.384-26.616,57-45
		c1.382-14.277,8.806-21.92,17-33c7.776-10.515,16.907-17.219,21-31c2.903,1.296,7.097,1.296,10,0
		C721.796,227.601,722.979,223.118,724,218.472z"/>
	<path fill-rule="evenodd" clip-rule="evenodd" fill="#FFFFFF" d="M341,344.472c-15.275-8.326-17.536-32.261-24-53
		c-6.043-19.388-16.233-39.891-18-58c-0.255-2.612-0.614-7.981,1-9c-0.282-1.615,0.945-1.722,1-3c1.615-0.282,1.722,0.945,3,1
		c11.777,14.548,16.401,37.153,24,61C334.802,304.818,343.156,320.394,341,344.472z"/>
	<path fill-rule="evenodd" clip-rule="evenodd" fill="#FFFFFF" d="M632,232.472c9.497,22.596,10.824,48.292,27,65
		c-18.243,23.09-46.054,36.613-74,50C601.413,309.885,616.114,270.586,632,232.472z"/>
	<path fill-rule="evenodd" clip-rule="evenodd" fill="#FFFFFF" d="M99,267.472c40.667,0,81.333,0,122,0
		c-0.646,30.354,1.306,63.307-1,92c-2.422,1.577-4.422,3.577-6,6c-19.67,1.805-40.593,1-65,1c-15.45,0-55.237,5.232-62-4
		c-5.367-7.326,1.925-35.777,3-45c2.228-19.104,5.2-30.541,7-47C97.86,269.665,97.594,267.732,99,267.472z M167,296.472
		c0.784,3.216,1.372,6.629,3,9c11.228,3.156,29.771,2.723,40-1c1.347-3.02,1.347-7.981,0-11
		C199.998,289.447,172.767,287.07,167,296.472z"/>
	<path fill-rule="evenodd" clip-rule="evenodd" fill="#FFFFFF" d="M337,350.472c4.646,0.979,6.037-1.296,9-2
		c15.179,8.82,35.721,12.279,53,19c-5.658,5.676-7.413,15.254-11,23c-27,0-54,0-81,0c-4.744-22.589,13.14-67.807-18-64
		c1.867-10.467,0.664-24.002,1-36c4.845-3.155,11.865-4.135,17-7C317.911,304.895,318.221,336.917,337,350.472z"/>
	<path fill-rule="evenodd" clip-rule="evenodd" fill="#FFFFFF" d="M207,297.472c-4.019,9.393-26.822,6.009-35,3
		C173.866,290.122,200.555,293.955,207,297.472z"/>
	<path fill-rule="evenodd" clip-rule="evenodd" fill="#FFFFFF" d="M87,303.472c2.787,16.381-12.96,49.106-3,62
		c7.09,9.178,45.411,5,62,5c22.837,0,58.537,5.891,72-3c16.819-11.107,3.682-40.237,8-64c8.306-0.972,11.81,2.856,16,6
		c1.031,40.417,2.942,90.236-1,129c-18.056-30.241-44.387-59.249-91-60c-38.713-0.623-66.77,22.63-84,45
		c-2.083-21.25,4.871-51.537-5-65c-7.187-1.813-17.299-0.701-26-1c0-15,0-30,0-45C40.963,298.102,68.295,305.101,87,303.472z"/>
	<path fill-rule="evenodd" clip-rule="evenodd" fill="#FFFFFF" d="M300,333.472c4.707,32.84,0.737,73.973,0,108
		c-15.695,2.305-35.646,0.354-53,1c-2.407-2.033,1.411-6.578,2-11c3.643-27.344-2.725-66.489,0-96c0-1,0-2,0-3
		C265.728,333.077,284.917,331.222,300,333.472z"/>
	<path fill-rule="evenodd" clip-rule="evenodd" fill="#FFFFFF" d="M58,363.472c0.358,25.712,4.688,64.005-3,85
		c-10.151-0.516-22.458,1.125-31-1c-3.146-4.821-1.607-16.849-2-27c3.974-1.692,10.622-0.712,13-4c1.64-12.843,1.64-32.157,0-45
		c0.045-5.072-12.349-2.948-12-5c-0.163-1.163,0.221-1.779,1-2C31.346,360.73,49.057,362.313,58,363.472z"/>
	<path fill-rule="evenodd" clip-rule="evenodd" fill="#FFFFFF" d="M16,374.472c5,0,10,0,15,0c-2.424,10.585-0.178,30.017-1,39
		c-4.667,0-9.333,0-14,0C16,400.472,16,387.472,16,374.472z"/>
	<path fill-rule="evenodd" clip-rule="evenodd" fill="#FFFFFF" d="M401,374.472c93.666,0,187.334,0,281,0
		c9.976,17.715,10.022,40.432,12,67c-14.973-6.142-8.233-39.277-29-48c-12.064-5.067-39.228-2-60-2c-41.614,0-80.979,0-122,0
		c-25.013,0-58.845-4.203-71,7c-12.509,11.528-8.389,38.773-26,44C384,420.499,393.337,393.366,401,374.472z"/>
	<path fill-rule="evenodd" clip-rule="evenodd" fill="#FFFFFF" d="M238,452.472c-5.333,0-10.667,0-16,0
		c-10.115-24.186-27.293-43.659-53-50c-41.396-10.211-81.486,14.85-92,50c-5.667,0-11.333,0-17,0c12.97-39.454,51.034-78.26,110-66
		C204.608,393.667,226.885,419.784,238,452.472z"/>
	<path fill-rule="evenodd" clip-rule="evenodd" fill="#FFFFFF" d="M387,396.472c1.962,9.667-18.404,46.839-2,51
		c7.878,1.998,14.753-6.994,17-11c6.614-11.795,5.398-35.275,22-39c14.476-3.247,37.679,0,59,0c19.178,0,39.625,0,59,0
		c47.474,0,84.676-4.286,118,0c14.337,1.844,25.447,37.244,19,53c-3.938-4.429-5.117-7.879-3-14c-7.475-8.858-16.502-16.165-24-25
		c-7.111,1.056-8.771,0.182-15-1c-3.531-1.135-2.469-6.865-6-8c-11,0-22,0-33,0c-5.335,5.214-10.233,13.875-20,9
		c-10.1,6.899-17.559,16.441-26,25c1.124,5.775,4.202,7.24,1,13c-5.233,1.631-16.767,1.631-22,0c-1.519-5.527-3.683-6.57-1-12
		c-6.977-10.023-16.372-17.628-25-26c-7.12,3.002-15.948-2.003-21-9c-13.118,2.228-21.123-3.096-31,0
		c-7.551,2.366-10.736,16.447-20,8c-10.361,7.306-18.291,17.042-27,26c1.756,6.663,3.642,7.835,0,14c-32.006-0.66-66.658,1.324-97-1
		c-3.756-12.952-2.164-36.446-1-51C330.403,393.875,361.282,397.754,387,396.472z"/>
	<path fill-rule="evenodd" clip-rule="evenodd" fill="#FFFFFF" d="M134,408.472c10.333,0,20.667,0,31,0
		c-2.675,11.675,10.934,7.065,14,13c2.323-0.677,2.677-3.323,5-4c9.436,4.564,14.972,13.028,22,20c0.178,3.511-3.378,3.289-4,6
		c2.1,4.233,4.334,8.332,5,14c1.289,1.378,4.344,0.989,7,1c0,10,0,20,0,30c-11.398-2.398-7.372,10.629-13,14
		c0.944,3.056,4.866,3.134,5,7c-9.436,4.111-18.391,28.509-27,15c-4.258,2.409-9.315,4.019-14,6c0,2.667,0,5.333,0,8
		c-10.333,0-20.667,0-31,0c0.609-2.391-1.255-7.255,1-8c-7.776-3.761-15.803-10.339-20,0c-7.92-6.413-14.08-14.587-22-21
		c1.382-2.951,4.618-4.049,6-7c-1.483-5.775-4.986-9.304-5-14c-3,0-6,0-9,0c0-10,0-20,0-30c13.228,2.183,7.93-8.025,14-13
		c-1.271-3.396-5.546-3.787-6-8c7.417-6.583,14.417-13.583,21-21c2.632,1.034,3.368,3.966,6,5c5.267-1.066,7.858-4.809,14-5
		C134,413.805,134,411.139,134,408.472z M99,465.472c-3.936,28.777,17.998,58.281,50,59c18.473,0.415,37.902-9.296,47-26
		c22.716-41.708-13.073-82.34-55-76C117.211,426.068,101.69,445.804,99,465.472z"/>
	<path fill-rule="evenodd" clip-rule="evenodd" fill="#FFFFFF" d="M453,408.472c10,0,20,0,30,0c-2.203,10.87,9.479,7.855,14,12
		c3.942,0.275,3.058-4.275,7-4c0.255,5.586,30.631,21.422,16,26c1.973,5.36,5.191,9.475,6,16c2.333,0,4.667,0,7,0c0,10,0,20,0,30
		c-11.909-2.576-8.059,10.607-14,14c1.577,2.423,3.577,4.423,6,6c-6.413,7.92-14.587,14.08-21,22c-2.423-1.577-4.423-3.577-6-6
		c-4.817,2.183-10.01,3.99-15,6c0,2.667,0,5.333,0,8c-10,0-20,0-30,0c0-2.667,0-5.333,0-8c-5.438-0.642-8.947-7.455-13-7
		c-3.029,0.341-5.604,6.998-7,7c-6.543,0.009-15.156-19.55-22-21c0.454-4.213,4.729-4.604,6-8c-1.482-4.518-3.932-8.068-5-13
		c-3,0-6,0-9,0c0-10,0-20,0-30c2.667,0,5.333,0,8,0c2.777-3.557,2.547-10.12,6-13c-0.656-3.677-3.687-4.98-6-7
		c6.413-7.92,14.587-14.08,21-22c3.866,0.134,3.944,4.056,7,5c4.555-2.112,9.107-4.226,14-6C453,413.139,453,410.805,453,408.472z
		 M418,459.472c-7.706,34.679,15.033,56.801,34,63c37.1,12.125,69.749-19.52,69-51c-0.314-13.199-8.856-29.897-15-36
		c-9.65-9.586-23.44-16.252-46-13C437.142,425.768,421.86,442.101,418,459.472z"/>
	<path fill-rule="evenodd" clip-rule="evenodd" fill="#FFFFFF" d="M599,408.472c10.333,0,20.667,0,31,0
		c-2.592,11.259,9.73,7.604,13,13c3.314-0.352,4.338-2.995,6-5c7.417,6.583,14.417,13.583,21,21c0.178,3.511-3.378,3.289-4,6
		c3.368,5.679,4.135,7.818,6,15c2.333,0,4.667,0,7,0c0,10,0,20,0,30c-12.201-2.868-7.611,11.056-14,14c0.944,3.056,4.866,3.134,5,7
		c-7.084,6.249-13.751,12.916-20,20c-3.866-0.134-3.944-4.056-7-5c-3.999,2.335-8.745,3.922-13,6c-1.516,0.079,1.598,6.538-1,8
		c-10,0-20,0-30,0c0-2.667,0-5.333,0-8c-2.896-3.104-9.104-2.896-12-6c-3.677,0.656-4.98,3.687-7,6c-7.92-6.413-14.08-14.587-22-21
		c0.134-3.866,4.056-3.944,5-7c-0.765-5.568-3.973-8.694-5-14c-3,0-6,0-9,0c0-10,0-20,0-30c11.938,2.938,9.505-8.495,14-13
		c-0.656-3.677-3.687-4.98-6-7c6.413-7.92,14.587-14.08,21-22c2.423,1.577,4.423,3.577,6,6c4.042-3.292,9.917-4.75,15-7
		C599,413.139,599,410.805,599,408.472z M563,473.472c0.766,31.705,25.422,53.077,56,51c21.863-1.485,43.427-19.711,47-40
		c6.896-39.164-23.289-67.454-60-62C580.371,426.279,562.289,444.048,563,473.472z"/>
	<path fill-rule="evenodd" clip-rule="evenodd" fill="#FFFFFF" d="M142,427.472c36.343-6.468,66.761,29.781,51,65
		c-10.287,22.986-40.03,34.491-64,22C91.541,494.951,98.302,435.248,142,427.472z M153,510.472c49.242-3.327,42.845-83.973-10-74
		C98.916,444.791,107.783,513.526,153,510.472z"/>
	<path fill-rule="evenodd" clip-rule="evenodd" fill="#FFFFFF" d="M460,427.472c72.243-13.226,71.632,104.757-2,91
		c-16.363-3.058-35.466-21.997-36-45C421.405,447.84,439.456,431.232,460,427.472z M435,455.472c-11.446,23.644,5.434,55.85,35,55
		c50.64-1.455,46.112-83.146-8-74C449.345,438.611,439.295,446.6,435,455.472z"/>
	<path fill-rule="evenodd" clip-rule="evenodd" fill="#FFFFFF" d="M626,518.472c-7.578,0.406-17.349-0.612-22,0
		c-47.463-11.895-44.668-85.448,4-92C669.67,418.17,678.227,507.588,626,518.472z M615,510.472c52.313,0,46.294-85.652-8-74
		C565.824,441.474,569.75,510.472,615,510.472z"/>
	<path fill-rule="evenodd" clip-rule="evenodd" fill="#FFFFFF" d="M148,441.472c18.428-1.678,39.213,13.75,34,39
		c-7.059,34.192-63.181,30.197-64-7C117.587,454.728,130.409,443.073,148,441.472z M150,450.472c1.511,3.662,5.984,4.893,9,2
		c0-2,0-4,0-6C155.87,443.419,149.711,444.731,150,450.472z M126,463.472c2.421,1.639,4.858,2.547,8,1c1.433-2.984-0.817-3.4,1-6
		C131.807,454.251,124.071,454.865,126,463.472z M178,471.472c0-2,0-4,0-6C167,456.977,167.718,479.709,178,471.472z M156,477.472
		c2.074-4.131,2.074-6.869,0-11C139.821,458.881,140.092,484.957,156,477.472z M128,490.472c1.764,2.622,7.236,2.622,9,0
		c0.589-3.589-1.162-4.838-2-7C129.534,482.673,127.201,485.006,128,490.472z M156,494.472c0.586,3.414,3.271,4.729,8,4
		c1.664-3.185,1.71-4.185,1-8C161.177,488.572,155.852,489.557,156,494.472z"/>
	<path fill-rule="evenodd" clip-rule="evenodd" fill="#FFFFFF" d="M438,483.472c-10.981-52.371,63.772-55.663,63-10
		C500.41,508.376,449.014,514.6,438,483.472z M469,446.472c-1.021,4.687,1.646,5.688,3,8
		C482.624,454.515,476.058,439.232,469,446.472z M444,457.472c-0.576,4.909,1.297,7.37,5,8
		C457.267,463.147,450.09,450.866,444,457.472z M487,469.472c2.02,5.202,9.868,4.666,10-2
		C495.47,461.706,486.67,462.847,487,469.472z M465,478.472c9.355,1.979,13.481-6.056,9-12
		C464.432,460.533,457.558,473.261,465,478.472z M446,490.472c2.162,0.838,3.411,2.589,7,2c2.445-1.754,2.362-6.031,1-9
		C448.216,482.688,444.97,484.441,446,490.472z M474,494.472c0.586,3.414,3.271,4.729,8,4
		C488.442,492.006,475.117,484.706,474,494.472z"/>
	<path fill-rule="evenodd" clip-rule="evenodd" fill="#FFFFFF" d="M613,441.472c22.275-1.565,39.22,17.357,33,41
		c-9.01,34.251-63.881,25.503-63-11C583.396,455.073,594.282,442.787,613,441.472z M624,447.472c-0.983-1.111-4.297-4.909-6-2
		C607.098,449.166,624.69,461,624,447.472z M590,462.472c1.682,3.371,6.258,3.529,9,1C601.411,453.69,588.793,453.521,590,462.472z
		 M637,473.472c14.745-1.857-4.264-19.231-3-2C635.182,471.957,636.267,472.538,637,473.472z M611,478.472
		c8.144,1.144,12.381-1.619,11-10C615.315,459.307,601.641,471.412,611,478.472z M594,492.472c5.295,0.961,6.784-1.883,8-5
		C599.418,479.176,587.225,486.045,594,492.472z M623,498.472c3.589,0.589,4.838-1.162,7-2c0-1.667,0-3.333,0-5
		C625.04,485.633,617.025,493.646,623,498.472z"/>
	<path fill-rule="evenodd" clip-rule="evenodd" fill="#FFFFFF" d="M606,343.472c-0.681,7.328-8.053,16.606-11,25
		c-16.333,0-32.667,0-49,0C567.162,361.301,588.557,354.361,606,343.472z"/>
</g>
</svg>
